<svg width="360" height="360" viewBox="0 0 360 360" fill="none" xmlns="http://www.w3.org/2000/svg">
<g clip-path="url(#clip0_1_256)">
<path fill-rule="evenodd" clip-rule="evenodd" d="M0.0012207 -0.000732422H360V359.997H0.0012207V-0.000732422Z" fill="#E0E0E0"/>
<path d="M68.9587 167.312V138H80.1677C82.3047 138 84.0384 138.322 85.4496 138.967C86.8608 139.653 87.9091 140.54 88.6349 141.709C89.3203 142.838 89.6832 144.128 89.6832 145.58C89.6832 146.789 89.4413 147.797 88.9978 148.644C88.5543 149.491 87.9091 150.176 87.1431 150.7C86.377 151.224 85.4899 151.587 84.5626 151.829V152.112C85.6109 152.192 86.5786 152.515 87.5463 153.079C88.5139 153.644 89.28 154.45 89.9251 155.498C90.5299 156.547 90.8122 157.837 90.8122 159.329C90.8122 160.821 90.4493 162.192 89.7235 163.401C88.9978 164.611 87.8688 165.578 86.4173 166.264C84.9255 166.949 83.0707 167.312 80.8128 167.312H68.9587ZM74.2407 162.877H79.9661C81.9015 162.877 83.2723 162.514 84.1594 161.748C85.0061 161.022 85.4093 160.055 85.4093 158.926C85.4093 158.039 85.2077 157.272 84.7642 156.547C84.361 155.861 83.7562 155.297 82.9498 154.894C82.1434 154.49 81.216 154.289 80.1274 154.289H74.2407V162.877ZM74.2407 150.458H79.5226C80.4499 150.458 81.2563 150.297 81.9821 149.934C82.7079 149.612 83.3127 149.128 83.7159 148.523C84.1594 147.878 84.361 147.152 84.361 146.265C84.361 145.136 83.9578 144.209 83.1917 143.483C82.3853 142.757 81.1757 142.354 79.6435 142.354H74.2407V150.458Z" fill="#C2C2C2"/>
<path d="M101.278 167.756C99.8668 167.756 98.6169 167.514 97.5282 166.99C96.3993 166.506 95.5122 165.78 94.8671 164.772C94.222 163.804 93.8994 162.595 93.8994 161.143C93.8994 159.893 94.1413 158.885 94.6252 158.079C95.0687 157.232 95.6735 156.587 96.4799 156.103C97.2863 155.619 98.1733 155.256 99.1813 155.014C100.149 154.773 101.197 154.571 102.286 154.45C103.536 154.329 104.584 154.208 105.391 154.087C106.197 153.966 106.802 153.805 107.165 153.563C107.528 153.321 107.689 152.958 107.689 152.474V152.394C107.689 151.305 107.407 150.499 106.761 149.894C106.116 149.289 105.189 149.007 103.979 149.007C102.729 149.007 101.721 149.289 100.955 149.813C100.23 150.378 99.7458 151.023 99.4636 151.789L94.6252 151.103C95.0284 149.773 95.6332 148.644 96.5202 147.757C97.4073 146.83 98.4959 146.184 99.7458 145.701C101.036 145.257 102.407 145.015 103.939 145.015C105.028 145.015 106.076 145.176 107.124 145.418C108.173 145.66 109.14 146.063 109.987 146.628C110.874 147.192 111.56 147.958 112.084 148.926C112.608 149.934 112.89 151.144 112.89 152.595V167.312H107.89V164.288H107.729C107.407 164.893 106.963 165.457 106.399 166.022C105.834 166.546 105.149 166.949 104.262 167.272C103.415 167.594 102.407 167.756 101.278 167.756ZM102.609 163.966C103.657 163.966 104.584 163.724 105.35 163.32C106.076 162.917 106.681 162.353 107.084 161.667C107.528 160.982 107.729 160.216 107.729 159.409V156.829C107.568 156.95 107.286 157.071 106.882 157.192C106.52 157.313 106.076 157.434 105.592 157.514C105.108 157.595 104.665 157.676 104.181 157.716C103.697 157.797 103.294 157.877 102.971 157.918C102.205 157.998 101.52 158.2 100.875 158.401C100.27 158.643 99.7861 159.006 99.4636 159.409C99.1007 159.853 98.8991 160.377 98.8991 161.062C98.8991 161.99 99.262 162.716 99.9474 163.199C100.673 163.724 101.56 163.966 102.609 163.966Z" fill="#C2C2C2"/>
<path d="M127.281 167.756C125.104 167.756 123.209 167.272 121.636 166.304C120.064 165.336 118.854 164.006 118.007 162.312C117.161 160.579 116.758 158.643 116.758 156.385C116.758 154.168 117.161 152.192 118.048 150.499C118.895 148.765 120.104 147.434 121.677 146.467C123.249 145.499 125.104 145.015 127.241 145.015C129.055 145.015 130.628 145.378 131.999 146.023C133.369 146.668 134.458 147.596 135.305 148.765C136.111 149.974 136.595 151.345 136.716 152.918H131.757C131.555 151.87 131.071 150.982 130.305 150.297C129.579 149.571 128.571 149.208 127.321 149.208C126.273 149.208 125.346 149.491 124.539 150.055C123.733 150.62 123.088 151.466 122.644 152.515C122.201 153.563 121.999 154.853 121.999 156.305C121.999 157.797 122.201 159.087 122.644 160.175C123.088 161.264 123.693 162.07 124.499 162.635C125.305 163.24 126.233 163.522 127.321 163.522C128.087 163.522 128.773 163.361 129.378 163.078C129.983 162.796 130.507 162.353 130.91 161.829C131.313 161.264 131.595 160.579 131.757 159.813H136.716C136.595 161.345 136.111 162.716 135.345 163.925C134.539 165.135 133.45 166.062 132.079 166.748C130.708 167.393 129.136 167.756 127.281 167.756Z" fill="#C2C2C2"/>
<path d="M144.911 160.417V154.168H145.717L153.66 145.338H159.708L149.991 156.144H148.902L144.911 160.417ZM140.193 167.312V138H145.394V167.312H140.193ZM153.983 167.312L146.846 157.313L150.313 153.644L160.192 167.312H153.983Z" fill="#C2C2C2"/>
<path d="M170.768 175.941C168.913 175.941 167.301 175.699 165.97 175.174C164.639 174.691 163.591 174.046 162.744 173.199C161.938 172.352 161.374 171.465 161.091 170.457L165.728 169.328C165.93 169.731 166.252 170.134 166.655 170.538C167.059 170.941 167.583 171.304 168.268 171.586C168.954 171.868 169.841 171.989 170.849 171.989C172.341 171.989 173.55 171.667 174.518 170.941C175.486 170.255 175.969 169.086 175.969 167.514V163.361H175.687C175.445 163.885 175.042 164.449 174.518 165.014C174.034 165.578 173.349 166.062 172.502 166.425C171.695 166.788 170.647 166.99 169.357 166.99C167.704 166.99 166.172 166.586 164.801 165.82C163.43 165.014 162.341 163.804 161.535 162.232C160.728 160.619 160.325 158.643 160.325 156.224C160.325 153.845 160.728 151.789 161.535 150.136C162.341 148.442 163.43 147.192 164.801 146.346C166.172 145.459 167.704 145.015 169.397 145.015C170.687 145.015 171.736 145.257 172.582 145.701C173.429 146.104 174.074 146.628 174.558 147.233C175.082 147.838 175.445 148.402 175.687 148.966H176.01V145.338H181.09V167.675C181.09 169.53 180.646 171.062 179.759 172.271C178.872 173.481 177.622 174.408 176.09 175.013C174.518 175.618 172.744 175.941 170.768 175.941ZM170.808 162.917C171.937 162.917 172.865 162.675 173.631 162.111C174.397 161.587 175.002 160.821 175.405 159.813C175.808 158.805 176.01 157.635 176.01 156.224C176.01 154.813 175.808 153.603 175.405 152.595C175.002 151.547 174.437 150.741 173.631 150.136C172.865 149.571 171.937 149.289 170.808 149.289C169.679 149.289 168.712 149.571 167.946 150.176C167.139 150.781 166.575 151.628 166.172 152.676C165.809 153.684 165.607 154.894 165.607 156.224C165.607 157.555 165.809 158.724 166.172 159.732C166.575 160.74 167.18 161.546 167.946 162.111C168.712 162.635 169.679 162.917 170.808 162.917Z" fill="#C2C2C2"/>
<path d="M185.782 167.312V145.338H190.822V148.966H191.024C191.427 147.717 192.112 146.749 193.12 146.023C194.088 145.338 195.217 145.015 196.467 145.015C196.749 145.015 197.072 145.015 197.435 145.055C197.798 145.055 198.08 145.096 198.322 145.136V149.934C198.12 149.854 197.757 149.773 197.273 149.692C196.83 149.652 196.346 149.612 195.903 149.612C194.975 149.612 194.128 149.813 193.362 150.216C192.637 150.62 192.032 151.184 191.629 151.91C191.185 152.636 190.984 153.442 190.984 154.369V167.312H185.782Z" fill="#C2C2C2"/>
<path d="M209.697 167.756C207.56 167.756 205.705 167.272 204.092 166.304C202.52 165.377 201.31 164.046 200.463 162.353C199.576 160.659 199.173 158.684 199.173 156.385C199.173 154.127 199.576 152.152 200.463 150.418C201.31 148.725 202.52 147.394 204.092 146.467C205.705 145.499 207.56 145.015 209.697 145.015C211.834 145.015 213.688 145.499 215.261 146.467C216.874 147.394 218.083 148.725 218.93 150.418C219.817 152.152 220.22 154.127 220.22 156.385C220.22 158.684 219.817 160.659 218.93 162.353C218.083 164.046 216.874 165.377 215.261 166.304C213.688 167.272 211.834 167.756 209.697 167.756ZM209.737 163.603C210.906 163.603 211.874 163.28 212.64 162.635C213.446 161.99 214.011 161.103 214.414 160.014C214.777 158.926 214.979 157.716 214.979 156.385C214.979 155.055 214.777 153.805 214.414 152.716C214.011 151.628 213.446 150.781 212.64 150.136C211.874 149.45 210.906 149.128 209.737 149.128C208.527 149.128 207.56 149.45 206.753 150.136C205.947 150.781 205.382 151.628 204.979 152.716C204.616 153.805 204.415 155.055 204.415 156.385C204.415 157.716 204.616 158.926 204.979 160.014C205.382 161.103 205.947 161.99 206.753 162.635C207.56 163.28 208.527 163.603 209.737 163.603Z" fill="#C2C2C2"/>
<path d="M238.186 158.079V145.338H243.347V167.312H238.348V163.401H238.106C237.622 164.651 236.775 165.659 235.646 166.425C234.517 167.191 233.146 167.595 231.493 167.595C230.042 167.595 228.792 167.272 227.663 166.627C226.574 165.982 225.727 165.054 225.082 163.804C224.477 162.595 224.155 161.063 224.155 159.329V145.338H229.356V158.523C229.356 159.934 229.719 161.022 230.485 161.829C231.251 162.675 232.259 163.079 233.509 163.079C234.275 163.079 235.001 162.877 235.727 162.514C236.412 162.151 237.017 161.587 237.461 160.861C237.944 160.095 238.186 159.168 238.186 158.079Z" fill="#C2C2C2"/>
<path d="M252.781 154.41V167.312H247.579V145.338H252.539V149.047H252.781C253.305 147.838 254.111 146.83 255.24 146.104C256.329 145.378 257.7 145.015 259.353 145.015C260.885 145.015 262.175 145.338 263.304 146.023C264.473 146.668 265.32 147.596 265.965 148.846C266.57 150.055 266.893 151.547 266.893 153.321V167.312H261.691V154.127C261.691 152.636 261.328 151.507 260.562 150.66C259.796 149.813 258.748 149.41 257.417 149.41C256.53 149.41 255.724 149.612 254.998 150.015C254.313 150.418 253.748 150.982 253.345 151.708C252.982 152.474 252.781 153.361 252.781 154.41Z" fill="#C2C2C2"/>
<path d="M279.321 167.715C277.627 167.715 276.055 167.272 274.684 166.385C273.353 165.498 272.265 164.208 271.458 162.514C270.692 160.821 270.289 158.764 270.289 156.345C270.289 153.886 270.692 151.829 271.499 150.136C272.305 148.483 273.394 147.192 274.764 146.346C276.135 145.459 277.667 145.015 279.361 145.015C280.651 145.015 281.699 145.257 282.546 145.701C283.353 146.104 284.038 146.628 284.522 147.233C285.006 147.838 285.369 148.402 285.651 148.967H285.852V138H291.054V167.312H285.973V163.845H285.651C285.369 164.369 284.965 164.933 284.482 165.538C283.957 166.143 283.312 166.667 282.466 167.07C281.659 167.473 280.611 167.715 279.321 167.715ZM280.772 163.441C281.901 163.441 282.828 163.159 283.595 162.554C284.361 161.95 284.965 161.103 285.369 160.055C285.772 158.966 285.973 157.756 285.973 156.305C285.973 154.894 285.772 153.644 285.369 152.595C284.965 151.547 284.401 150.741 283.595 150.176C282.828 149.571 281.901 149.289 280.772 149.289C279.643 149.289 278.675 149.571 277.909 150.176C277.103 150.781 276.539 151.628 276.135 152.676C275.772 153.724 275.571 154.934 275.571 156.305C275.571 157.676 275.772 158.926 276.135 159.974C276.539 161.063 277.143 161.909 277.909 162.514C278.675 163.119 279.643 163.441 280.772 163.441Z" fill="#C2C2C2"/>
<path d="M124.456 184.08H129.778V213.392H124.456V184.08Z" fill="#C2C2C2"/>
<path d="M134.867 213.392V191.418H139.826V195.127H140.068C140.552 193.877 141.278 192.91 142.366 192.184C143.415 191.458 144.664 191.095 146.156 191.095C147.648 191.095 148.898 191.458 149.906 192.184C150.954 192.91 151.68 193.877 152.083 195.127H152.325C152.809 193.918 153.615 192.95 154.785 192.224C155.954 191.458 157.325 191.095 158.938 191.095C160.954 191.095 162.607 191.74 163.897 193.031C165.147 194.321 165.792 196.176 165.792 198.635V213.392H160.591V199.441C160.591 198.071 160.228 197.063 159.502 196.417C158.776 195.813 157.889 195.49 156.841 195.49C155.591 195.49 154.623 195.853 153.938 196.659C153.212 197.425 152.849 198.433 152.849 199.683V213.392H147.769V199.2C147.769 198.071 147.447 197.184 146.761 196.498C146.076 195.813 145.189 195.49 144.1 195.49C143.334 195.49 142.648 195.651 142.044 196.055C141.439 196.417 140.955 196.942 140.592 197.627C140.229 198.312 140.068 199.119 140.068 200.006V213.392H134.867Z" fill="#C2C2C2"/>
<path d="M176.248 213.836C174.837 213.836 173.587 213.594 172.498 213.07C171.369 212.586 170.482 211.86 169.837 210.852C169.192 209.884 168.869 208.675 168.869 207.223C168.869 205.973 169.111 204.965 169.595 204.159C170.039 203.312 170.643 202.667 171.45 202.183C172.256 201.699 173.143 201.336 174.151 201.095C175.119 200.853 176.167 200.651 177.256 200.53C178.506 200.409 179.554 200.288 180.361 200.167C181.167 200.046 181.772 199.885 182.135 199.643C182.498 199.401 182.659 199.038 182.659 198.554V198.474C182.659 197.385 182.377 196.579 181.731 195.974C181.086 195.369 180.159 195.087 178.949 195.087C177.699 195.087 176.691 195.369 175.925 195.893C175.2 196.458 174.716 197.103 174.434 197.869L169.595 197.184C169.998 195.853 170.603 194.724 171.49 193.837C172.377 192.91 173.466 192.264 174.716 191.781C176.006 191.337 177.377 191.095 178.909 191.095C179.998 191.095 181.046 191.256 182.094 191.498C183.143 191.74 184.11 192.144 184.957 192.708C185.844 193.272 186.53 194.039 187.054 195.006C187.578 196.014 187.86 197.224 187.86 198.675V213.392H182.86V210.368H182.699C182.377 210.973 181.933 211.537 181.369 212.102C180.804 212.626 180.119 213.029 179.232 213.352C178.385 213.674 177.377 213.836 176.248 213.836ZM177.578 210.046C178.627 210.046 179.554 209.804 180.32 209.4C181.046 208.997 181.651 208.433 182.054 207.747C182.498 207.062 182.699 206.296 182.699 205.489V202.909C182.538 203.03 182.256 203.151 181.852 203.272C181.49 203.393 181.046 203.514 180.562 203.594C180.078 203.675 179.635 203.756 179.151 203.796C178.667 203.877 178.264 203.957 177.941 203.998C177.175 204.078 176.49 204.28 175.845 204.481C175.24 204.723 174.756 205.086 174.434 205.489C174.071 205.933 173.869 206.457 173.869 207.143C173.869 208.07 174.232 208.796 174.917 209.28C175.643 209.804 176.53 210.046 177.578 210.046Z" fill="#C2C2C2"/>
<path d="M202.211 222.021C200.356 222.021 198.743 221.779 197.413 221.255C196.082 220.771 195.034 220.126 194.187 219.279C193.381 218.432 192.816 217.545 192.534 216.537L197.171 215.408C197.372 215.811 197.695 216.215 198.098 216.618C198.501 217.021 199.025 217.384 199.711 217.666C200.396 217.948 201.283 218.069 202.291 218.069C203.783 218.069 204.993 217.747 205.96 217.021C206.928 216.336 207.412 215.166 207.412 213.594V209.441H207.13C206.888 209.965 206.485 210.529 205.96 211.094C205.477 211.658 204.791 212.142 203.944 212.505C203.138 212.868 202.09 213.07 200.799 213.07C199.146 213.07 197.614 212.666 196.243 211.9C194.872 211.094 193.784 209.884 192.977 208.312C192.171 206.699 191.768 204.723 191.768 202.304C191.768 199.925 192.171 197.869 192.977 196.216C193.784 194.522 194.872 193.272 196.243 192.426C197.614 191.539 199.146 191.095 200.84 191.095C202.13 191.095 203.178 191.337 204.025 191.781C204.872 192.184 205.517 192.708 206.001 193.313C206.525 193.918 206.888 194.482 207.13 195.047H207.452V191.418H212.533V213.755C212.533 215.61 212.089 217.142 211.202 218.352C210.315 219.561 209.065 220.489 207.533 221.093C205.96 221.698 204.186 222.021 202.211 222.021ZM202.251 208.997C203.38 208.997 204.307 208.755 205.073 208.191C205.839 207.667 206.444 206.901 206.847 205.893C207.251 204.885 207.452 203.715 207.452 202.304C207.452 200.893 207.251 199.683 206.847 198.675C206.444 197.627 205.88 196.821 205.073 196.216C204.307 195.651 203.38 195.369 202.251 195.369C201.122 195.369 200.154 195.651 199.388 196.256C198.582 196.861 198.017 197.708 197.614 198.756C197.251 199.764 197.05 200.974 197.05 202.304C197.05 203.635 197.251 204.804 197.614 205.812C198.017 206.82 198.622 207.626 199.388 208.191C200.154 208.715 201.122 208.997 202.251 208.997Z" fill="#C2C2C2"/>
<path d="M226.982 213.836C224.765 213.836 222.87 213.352 221.257 212.424C219.644 211.537 218.434 210.207 217.588 208.513C216.701 206.82 216.297 204.844 216.297 202.506C216.297 200.248 216.701 198.272 217.588 196.579C218.434 194.845 219.644 193.514 221.217 192.547C222.749 191.579 224.603 191.095 226.7 191.095C228.031 191.095 229.321 191.337 230.53 191.781C231.74 192.184 232.829 192.869 233.756 193.756C234.683 194.684 235.409 195.853 235.933 197.224C236.457 198.635 236.74 200.288 236.74 202.224V203.796H218.717V200.328H231.78C231.78 199.32 231.538 198.433 231.135 197.667C230.692 196.901 230.127 196.256 229.361 195.813C228.635 195.369 227.748 195.168 226.781 195.168C225.692 195.168 224.765 195.409 223.958 195.934C223.152 196.417 222.547 197.103 222.104 197.909C221.66 198.756 221.418 199.643 221.418 200.651V203.675C221.418 204.965 221.66 206.054 222.144 206.981C222.587 207.868 223.233 208.594 224.079 209.078C224.926 209.562 225.894 209.804 227.023 209.804C227.789 209.804 228.474 209.683 229.079 209.481C229.684 209.239 230.208 208.917 230.692 208.513C231.135 208.07 231.458 207.586 231.7 206.941L236.538 207.505C236.216 208.755 235.651 209.884 234.804 210.852C233.917 211.779 232.829 212.505 231.498 213.029C230.208 213.553 228.676 213.836 226.982 213.836Z" fill="#C2C2C2"/>
<path fill-rule="evenodd" clip-rule="evenodd" d="M120.152 116.078L4.07378 0.000418732L-0.000910866 -0.000920189L0.000426707 4.07378L116.078 120.152L120.152 116.078Z" fill="#C2C2C2"/>
<path fill-rule="evenodd" clip-rule="evenodd" d="M120.152 243.921L4.07378 359.999L-0.000910866 360L0.000426707 355.925L116.078 239.847L120.152 243.921Z" fill="#C2C2C2"/>
<path fill-rule="evenodd" clip-rule="evenodd" d="M239.848 116.078L355.926 0.000418735L360.001 -0.000920017L359.999 4.07378L243.921 120.152L239.848 116.078Z" fill="#C2C2C2"/>
<path fill-rule="evenodd" clip-rule="evenodd" d="M239.848 243.921L355.926 359.999L360.001 360L359.999 355.925L243.921 239.847L239.848 243.921Z" fill="#C2C2C2"/>
</g>
<defs>
<clipPath id="clip0_1_256">
<rect width="360" height="360" fill="white"/>
</clipPath>
</defs>
</svg>
